<mxfile host="65bd71144e">
    <diagram id="ScJlzpaBpXCMqRjQhUW3" name="Page-1">
        <mxGraphModel dx="1147" dy="529" grid="1" gridSize="10" guides="1" tooltips="1" connect="1" arrows="1" fold="1" page="1" pageScale="1" pageWidth="827" pageHeight="1169" math="0" shadow="0">
            <root>
                <mxCell id="0"/>
                <mxCell id="1" parent="0"/>
                <mxCell id="2" value="" style="aspect=fixed;html=1;points=[];align=center;image;fontSize=12;image=img/lib/azure2/other/Container_App_Environments.svg;shadow=0;" vertex="1" parent="1">
                    <mxGeometry x="140" y="140" width="68" height="68" as="geometry"/>
                </mxCell>
            </root>
        </mxGraphModel>
    </diagram>
</mxfile>